<svg aria-hidden="false" aria-label="Interactive chart" viewBox="0 0 650 400" height="400" width="650" xmlns="http://www.w3.org/2000/svg" style="font-family: Roboto; font-size: 12px;" class="highcharts-root" version="1.1" xmlns:xlink="http://www.w3.org/1999/xlink"><desc aria-hidden="true"></desc><defs aria-hidden="true"><clipPath id="highcharts-ql8dw5u-501-"><rect fill="none" height="400" width="650" y="0" x="0"></rect></clipPath></defs><rect aria-hidden="true" ry="0" rx="0" height="400" width="650" y="0" x="0" class="highcharts-background" fill="#ffffff"></rect><g aria-hidden="true" data-z-index="-1000" class="highcharts-3d-frame highcharts-3d-frame-bottom" stroke-linejoin="round"><path visibility="hidden" d="M 51.10516484294362 259.8112599674562 L 635.8330694557776 259.98938731744977 L 637.9227176594718 257.9000573772985 L 53.19481304663782 257.7219300273048 Z" fill="none"></path><path d="M 54.16693054422234 256.7501112993584 L 637.9054478396065 256.9279372494367 L 635.8330694557776 259 L 52.09455216039345 258.8221740499217 Z" fill="none"></path><path visibility="hidden" d="M 51.10516484294362 259.8112599674562 L 53.19481304663782 257.7219300273048 L 54.16693054422234 256.7501112993584 L 52.09455216039345 258.8221740499217 Z" fill="none"></path><path d="M 637.9227176594718 257.9000573772985 L 635.8330694557776 259.98938731744977 L 635.8330694557776 259 L 637.9054478396065 256.9279372494367 Z" fill="none"></path><path d="M 635.8330694557776 259.98938731744977 L 51.10516484294362 259.8112599674562 L 52.09455216039345 258.8221740499217 L 635.8330694557776 259 Z" fill="none"></path><path visibility="hidden" d="M 53.19481304663782 257.7219300273048 L 637.9227176594718 257.9000573772985 L 637.9054478396065 256.9279372494367 L 54.16693054422234 256.7501112993584 Z" fill="none"></path></g><g aria-hidden="true" data-z-index="-1000" class="highcharts-3d-frame highcharts-3d-frame-left" stroke-linejoin="round"><path visibility="hidden" d="M 51.10516484294362 259.8112599674562 L 52.09455216039345 258.8221740499217 L 54.16693054422234 256.7501112993584 L 53.19481304663782 257.7219300273048 Z" fill="none"></path><path d="M 53.19481304663782 46.982431410496616 L 54.16693054422234 47.000000000000014 L 52.09455216039345 49.07206275056333 L 51.10516484294362 49.07176135064796 Z" fill="none"></path><path visibility="hidden" d="M 53.19481304663782 257.7219300273048 L 53.19481304663782 46.982431410496616 L 51.10516484294362 49.07176135064796 L 51.10516484294362 259.8112599674562 Z" fill="none"></path><path d="M 54.16693054422234 47.000000000000014 L 54.16693054422234 256.7501112993584 L 52.09455216039345 258.8221740499217 L 52.09455216039345 49.07206275056333 Z" fill="none"></path><path d="M 51.10516484294362 259.8112599674562 L 51.10516484294362 49.07176135064796 L 52.09455216039345 49.07206275056333 L 52.09455216039345 258.8221740499217 Z" fill="none"></path><path visibility="hidden" d="M 53.19481304663782 46.982431410496616 L 53.19481304663782 257.7219300273048 L 54.16693054422234 256.7501112993584 L 54.16693054422234 47.000000000000014 Z" fill="none"></path></g><g aria-hidden="true" data-z-index="-1000" class="highcharts-3d-frame highcharts-3d-frame-back" stroke-linejoin="round"><path visibility="hidden" d="M 637.9227176594718 257.9000573772985 L 53.19481304663782 257.7219300273048 L 54.16693054422234 256.7501112993584 L 637.9054478396065 256.9279372494367 Z" fill="none"></path><path d="M 53.19481304663782 46.982431410496616 L 637.9227176594718 47.16055876049026 L 637.9054478396065 47.17782595007827 L 54.16693054422234 47.000000000000014 Z" fill="none"></path><path visibility="hidden" d="M 53.19481304663782 257.7219300273048 L 53.19481304663782 46.982431410496616 L 54.16693054422234 47.000000000000014 L 54.16693054422234 256.7501112993584 Z" fill="none"></path><path d="M 637.9227176594718 47.16055876049026 L 637.9227176594718 257.9000573772985 L 637.9054478396065 256.9279372494367 L 637.9054478396065 47.17782595007827 Z" fill="none"></path><path d="M 54.16693054422234 47.000000000000014 L 637.9054478396065 47.17782595007827 L 637.9054478396065 256.9279372494367 L 54.16693054422234 256.7501112993584 Z" fill="none"></path><path visibility="hidden" d="M 53.19481304663782 257.7219300273048 L 637.9227176594718 257.9000573772985 L 637.9227176594718 47.16055876049026 L 53.19481304663782 46.982431410496616 Z" fill="none"></path></g><rect aria-hidden="true" height="212" width="590" y="47" x="50" class="highcharts-plot-background" fill="none"></rect><g aria-hidden="true" data-z-index="0" class="highcharts-pane-group"></g><g aria-hidden="true" data-z-index="1" class="highcharts-grid highcharts-xaxis-grid"><path opacity="1" d="M 126.88689837678297 47.02215289378094 L 126.88689837678297 256.77226419313934 M 124.81451999295396 258.84432694370264 L 126.88689837678297 256.77226419313934" class="highcharts-grid-line" data-z-index="1" stroke-dasharray="none" stroke-width="1" stroke="#e6e6e6" fill="none"></path><path opacity="1" d="M 200.10155986806845 47.04445648751958 L 200.10155986806845 256.79456778687796 M 198.02918148423944 258.8666305374413 L 200.10155986806845 256.79456778687796" class="highcharts-grid-line" data-z-index="1" stroke-dasharray="none" stroke-width="1" stroke="#e6e6e6" fill="none"></path><path opacity="1" d="M 272.32683404190414 47.06645868134282 L 272.32683404190414 256.8165699807012 M 270.25445565807513 258.8886327312645 L 272.32683404190414 256.8165699807012" class="highcharts-grid-line" data-z-index="1" stroke-dasharray="none" stroke-width="1" stroke="#e6e6e6" fill="none"></path><path opacity="1" d="M 345.54149553318956 47.08876227508145 L 345.54149553318956 256.83887357443984 M 343.4691171493606 258.91093632500315 L 345.54149553318956 256.83887357443984" class="highcharts-grid-line" data-z-index="1" stroke-dasharray="none" stroke-width="1" stroke="#e6e6e6" fill="none"></path><path opacity="1" d="M 418.75615702447504 47.11106586882008 L 418.75615702447504 256.8611771681785 M 416.6837786406461 258.9332399187418 L 418.75615702447504 256.8611771681785" class="highcharts-grid-line" data-z-index="1" stroke-dasharray="none" stroke-width="1" stroke="#e6e6e6" fill="none"></path><path opacity="1" d="M 491.9708185157606 47.133369462558704 L 491.9708185157606 256.8834807619171 M 489.8984401319316 258.9555435124804 L 491.9708185157606 256.8834807619171" class="highcharts-grid-line" data-z-index="1" stroke-dasharray="none" stroke-width="1" stroke="#e6e6e6" fill="none"></path><path opacity="1" d="M 564.1960926895962 47.155371656381945 L 564.1960926895962 256.90548295574035 M 562.1237143057672 258.97754570630366 L 564.1960926895962 256.90548295574035" class="highcharts-grid-line" data-z-index="1" stroke-dasharray="none" stroke-width="1" stroke="#e6e6e6" fill="none"></path><path opacity="1" d="M 638.4001414983315 47.17797665003596 L 638.4001414983315 256.92808794939435 M 636.3277631145025 259.00015069995766 L 638.4001414983315 256.92808794939435" class="highcharts-grid-line" data-z-index="1" stroke-dasharray="none" stroke-width="1" stroke="#e6e6e6" fill="none"></path><path opacity="1" d="M 53.672236885497455 46.99984930004233 L 53.672236885497455 256.7499605994007 M 51.59985850166851 258.82202334996407 L 53.672236885497455 256.7499605994007" class="highcharts-grid-line" data-z-index="1" stroke-dasharray="none" stroke-width="1" stroke="#e6e6e6" fill="none"></path></g><g aria-hidden="true" data-z-index="1" class="highcharts-grid highcharts-zaxis-grid"></g><g aria-hidden="true" data-z-index="1" class="highcharts-grid highcharts-yaxis-grid"><path opacity="1" d="M 54.16693054422234 257.2448049580833 L 637.9054478396065 257.4226309081616 M 52.09455216039345 259.31686770864667 L 54.16693054422234 257.2448049580833" class="highcharts-grid-line" data-z-index="1" stroke-dasharray="none" stroke-width="1" stroke="#e6e6e6" fill="none"></path><path opacity="1" d="M 54.16693054422234 215.69053762519155 L 637.9054478396065 215.86836357526983 M 52.09455216039345 217.7626003757549 L 54.16693054422234 215.69053762519155" class="highcharts-grid-line" data-z-index="1" stroke-dasharray="none" stroke-width="1" stroke="#e6e6e6" fill="none"></path><path opacity="1" d="M 54.16693054422234 173.14688297485 L 637.9054478396065 173.32470892492825 M 52.09455216039345 175.2189457254133 L 54.16693054422234 173.14688297485" class="highcharts-grid-line" data-z-index="1" stroke-dasharray="none" stroke-width="1" stroke="#e6e6e6" fill="none"></path><path opacity="1" d="M 54.16693054422234 131.59261564195825 L 637.9054478396065 131.7704415920365 M 52.09455216039345 133.66467839252155 L 54.16693054422234 131.59261564195825" class="highcharts-grid-line" data-z-index="1" stroke-dasharray="none" stroke-width="1" stroke="#e6e6e6" fill="none"></path><path opacity="1" d="M 54.16693054422234 89.04896099161667 L 637.9054478396065 89.22678694169491 M 52.09455216039345 91.12102374218 L 54.16693054422234 89.04896099161667" class="highcharts-grid-line" data-z-index="1" stroke-dasharray="none" stroke-width="1" stroke="#e6e6e6" fill="none"></path><path opacity="1" d="M 54.16693054422234 46.5053063412751 L 637.9054478396065 46.68313229135336 M 52.09455216039345 48.577369091838435 L 54.16693054422234 46.5053063412751" class="highcharts-grid-line" data-z-index="1" stroke-dasharray="none" stroke-width="1" stroke="#e6e6e6" fill="none"></path></g><rect aria-hidden="true" height="212" width="590" y="47" x="50" data-z-index="1" class="highcharts-plot-border" fill="none"></rect><g aria-hidden="true" data-z-index="2" class="highcharts-axis highcharts-xaxis"><path d="M 0 0" data-z-index="7" stroke-width="1" stroke="#ccd6eb" class="highcharts-axis-line" fill="none"></path></g><g aria-hidden="true" data-z-index="2" class="highcharts-axis highcharts-zaxis"><path d="M 0 0" data-z-index="7" class="highcharts-axis-line" fill="none"></path></g><g aria-hidden="true" data-z-index="2" class="highcharts-axis highcharts-yaxis"><path d="M 0 0" data-z-index="7" class="highcharts-axis-line" fill="none"></path></g><g aria-hidden="false" data-z-index="3" class="highcharts-series-group"><g aria-hidden="false" clip-path="none" opacity="1" data-z-index="10" visibility="visible" transform="translate(50,47) scale(1 1)" class="highcharts-markers highcharts-series-0 highcharts-column-series"><g aria-label="bcache, 18,323. Lines Of Code." role="img" style="outline: none;" tabindex="-1" class="highcharts-point" opacity="1" stroke-width="1" stroke="#0557b5" data-z-index="24099970" stroke-linejoin="round"><path data-z-index="0" class="highcharts-3d-front" d="M 25.857117599053936 211.812140458303 L 52.57057517019862 211.8202782560184 L 52.57057517019862 204.8945670338698 L 25.857117599053936 204.88642923615436 Z" fill="#0557b5"></path><path data-z-index="0" class="highcharts-3d-top" d="M 52.57057517019862 204.8945670338698 L 59.47850311629517 197.98769119865875 L 32.76504554515043 197.9795534009433 L 25.857117599053936 204.88642923615436 Z" fill="rgb(30,112,206)"></path><path data-z-index="0" class="highcharts-3d-side" d="M 52.57057517019862 204.8945670338698 L 52.57057517019862 211.8202782560184 L 59.47850311629517 204.9134024208074 L 59.47850311629517 197.98769119865875 Z" fill="rgb(0,62,156)"></path></g><g aria-label="vdo, 52,268. Lines Of Code." role="img" style="outline: none;" tabindex="-1" class="highcharts-point" opacity="1" stroke-width="1" stroke="#0557b5" data-z-index="97100110" stroke-linejoin="round"><path data-z-index="0" class="highcharts-3d-front" d="M 98.0823917728896 211.83414265212622 L 124.79584934403431 211.84228044984167 L 124.79584934403431 191.0651467833958 L 98.0823917728896 191.05700898568034 Z" fill="#0557b5"></path><path data-z-index="0" class="highcharts-3d-top" d="M 124.79584934403431 191.0651467833958 L 131.70377729013086 184.15827094818474 L 104.99031971898614 184.1501331504693 L 98.0823917728896 191.05700898568034 Z" fill="rgb(30,112,206)"></path><path data-z-index="0" class="highcharts-3d-side" d="M 124.79584934403431 191.0651467833958 L 124.79584934403431 211.84228044984167 L 131.70377729013086 204.9354046146306 L 131.70377729013086 184.15827094818474 Z" fill="rgb(0,62,156)"></path></g><g aria-label="ext4, 64,941. Lines Of Code." role="img" style="outline: none;" tabindex="-1" class="highcharts-point" opacity="1" stroke-width="1" stroke="#0557b5" data-z-index="171100170" stroke-linejoin="round"><path data-z-index="0" class="highcharts-3d-front" d="M 171.29705326417508 211.85644624586484 L 198.0105108353198 211.8645840435803 L 198.0105108353198 185.1511264724356 L 171.29705326417508 185.14298867472016 Z" fill="#0557b5"></path><path data-z-index="0" class="highcharts-3d-top" d="M 198.0105108353198 185.1511264724356 L 204.91843878141634 178.24425063722455 L 178.20498121027163 178.2361128395091 L 171.29705326417508 185.14298867472016 Z" fill="rgb(30,112,206)"></path><path data-z-index="0" class="highcharts-3d-side" d="M 198.0105108353198 185.1511264724356 L 198.0105108353198 211.8645840435803 L 204.91843878141634 204.95770820836924 L 204.91843878141634 178.24425063722455 Z" fill="rgb(0,62,156)"></path></g><g aria-label="bcachefs, 101,718. Lines Of Code." role="img" style="outline: none;" tabindex="-1" class="highcharts-point" opacity="1" stroke-width="1" stroke="#0557b5" data-z-index="245100320" stroke-linejoin="round"><path data-z-index="0" class="highcharts-3d-front" d="M 244.51171475546056 211.87874983960347 L 271.2251723266053 211.88688763731892 L 271.2251723266053 170.33262030442717 L 244.51171475546056 170.32448250671172 Z" fill="#0557b5"></path><path data-z-index="0" class="highcharts-3d-top" d="M 271.2251723266053 170.33262030442717 L 278.1331002727018 163.4257444692161 L 251.4196427015571 163.41760667150066 L 244.51171475546056 170.32448250671172 Z" fill="rgb(30,112,206)"></path><path data-z-index="0" class="highcharts-3d-side" d="M 271.2251723266053 170.33262030442717 L 271.2251723266053 211.88688763731892 L 278.1331002727018 204.98001180210787 L 278.1331002727018 163.4257444692161 Z" fill="rgb(0,62,156)"></path></g><g aria-label="btrfs, 156,122. Lines Of Code." role="img" style="outline: none;" tabindex="-1" class="highcharts-point" opacity="1" stroke-width="1" stroke="#0557b5" data-z-index="319100550" stroke-linejoin="round"><path data-z-index="0" class="highcharts-3d-front" d="M 317.72637624674604 211.9010534333421 L 344.43983381789076 211.90919123105755 L 344.43983381789076 147.59901559682032 L 317.72637624674604 147.59087779910487 Z" fill="#0557b5"></path><path data-z-index="0" class="highcharts-3d-top" d="M 344.43983381789076 147.59901559682032 L 351.3477617639873 140.69213976160927 L 324.6343041928426 140.68400196389382 L 317.72637624674604 147.59087779910487 Z" fill="rgb(30,112,206)"></path><path data-z-index="0" class="highcharts-3d-side" d="M 344.43983381789076 147.59901559682032 L 344.43983381789076 211.90919123105755 L 351.3477617639873 205.0023153958465 L 351.3477617639873 140.69213976160927 Z" fill="rgb(0,62,156)"></path></g><g aria-label="XFS, 177,872. Lines Of Code." role="img" style="outline: none;" tabindex="-1" class="highcharts-point" opacity="1" stroke-width="1" stroke="#0557b5" data-z-index="392100640" stroke-linejoin="round"><path data-z-index="0" class="highcharts-3d-front" d="M 389.9516504205817 211.92305562716535 L 416.6651079917264 211.9311934248808 L 416.6651079917264 138.71653193359532 L 389.9516504205817 138.70839413587987 Z" fill="#0557b5"></path><path data-z-index="0" class="highcharts-3d-top" d="M 416.6651079917264 138.71653193359532 L 423.57303593782297 131.80965609838427 L 396.8595783666783 131.80151830066882 L 389.9516504205817 138.70839413587987 Z" fill="rgb(30,112,206)"></path><path data-z-index="0" class="highcharts-3d-side" d="M 416.6651079917264 138.71653193359532 L 416.6651079917264 211.9311934248808 L 423.57303593782297 205.02431758966975 L 423.57303593782297 131.80965609838427 Z" fill="rgb(0,62,156)"></path></g><g aria-label="Stratis (XFS,dm,vdo), 374,285. Lines Of Code." role="img" style="outline: none;" tabindex="-1" class="highcharts-point" opacity="1" stroke-width="1" stroke="#0557b5" data-z-index="466101480" stroke-linejoin="round"><path data-z-index="0" class="highcharts-3d-front" d="M 463.1663119118672 211.94535922090398 L 489.8797694830119 211.95349701861943 L 489.8797694830119 55.63030086155044 L 463.1663119118672 55.622163063834996 Z" fill="#0557b5"></path><path data-z-index="0" class="highcharts-3d-top" d="M 489.8797694830119 55.63030086155044 L 496.78769742910845 48.723425026339385 L 470.07423985796373 48.71528722862394 L 463.1663119118672 55.622163063834996 Z" fill="rgb(30,112,206)"></path><path data-z-index="0" class="highcharts-3d-side" d="M 489.8797694830119 55.63030086155044 L 489.8797694830119 211.95349701861943 L 496.78769742910845 205.04662118340838 L 496.78769742910845 48.723425026339385 Z" fill="rgb(0,62,156)"></path></g><g aria-label="OpenZFS, 393,020. Lines Of Code." role="img" style="outline: none;" tabindex="-1" class="highcharts-point" opacity="1" stroke-width="1" stroke="#0557b5" data-z-index="540101560" stroke-linejoin="round"><path data-z-index="0" class="highcharts-3d-front" d="M 536.3809734031527 211.9676628146426 L 563.0944309742974 211.97580061235806 L 563.0944309742974 47.73750591569064 L 536.3809734031527 47.72936811797519 Z" fill="#0557b5"></path><path data-z-index="0" class="highcharts-3d-top" d="M 563.0944309742974 47.73750591569064 L 570.0023589203938 40.83063008047958 L 543.2889013492493 40.822492282764145 L 536.3809734031527 47.72936811797519 Z" fill="rgb(30,112,206)"></path><path data-z-index="0" class="highcharts-3d-side" d="M 563.0944309742974 47.73750591569064 L 563.0944309742974 211.97580061235806 L 570.0023589203938 205.068924777147 L 570.0023589203938 40.83063008047958 Z" fill="rgb(0,62,156)"></path></g></g></g><text aria-hidden="true" y="24" style="color: rgb(51, 51, 51); font-size: 18px; fill: rgb(51, 51, 51);" data-z-index="4" class="highcharts-title" text-anchor="middle" x="325">Code Size Comparison</text><text aria-hidden="true" y="46" style="color: rgb(102, 102, 102); fill: rgb(102, 102, 102);" data-z-index="4" class="highcharts-subtitle" text-anchor="middle" x="325"></text><text aria-hidden="true" y="397" style="color: rgb(102, 102, 102); fill: rgb(102, 102, 102);" data-z-index="4" class="highcharts-caption" text-anchor="start" x="10"></text><g aria-hidden="true" transform="translate(268,359)" data-z-index="7" class="highcharts-legend highcharts-no-tooltip"><rect height="26" width="114" y="0" x="0" ry="0" rx="0" class="highcharts-legend-box" fill="none"></rect><g data-z-index="1"><g><g transform="translate(8,3)" data-z-index="1" class="highcharts-legend-item highcharts-column-series highcharts-color-undefined highcharts-series-0"><text y="15" data-z-index="2" text-anchor="start" style="color: rgb(51, 51, 51); cursor: pointer; font-size: 12px; font-weight: bold; fill: rgb(51, 51, 51);" x="21">Lines Of Code</text><rect data-z-index="3" class="highcharts-point" ry="6" rx="6" fill="#0557b5" height="12" width="12" y="4" x="2"></rect></g></g></g></g><g aria-hidden="true" data-z-index="7" class="highcharts-axis-labels highcharts-xaxis-labels"><text opacity="1" z="6.888727408193816" y="274.66667808100897" transform="translate(0,0) rotate(-45 91.14341858978023 274.66667808100897)" text-anchor="end" style="color: rgb(102, 102, 102); cursor: default; font-size: 11px; fill: rgb(102, 102, 102);" x="91.14341858978023">bcache</text><text opacity="1" z="5.615272176076772" y="274.6889063247687" transform="translate(0,0) rotate(-45 164.1107332517033 274.6889063247687)" text-anchor="end" style="color: rgb(102, 102, 102); cursor: default; font-size: 11px; fill: rgb(102, 102, 102);" x="164.1107332517033">vdo</text><text opacity="1" z="4.341816943959735" y="274.7111345685285" transform="translate(0,0) rotate(-45 237.07804791362628 274.7111345685285)" text-anchor="end" style="color: rgb(102, 102, 102); cursor: default; font-size: 11px; fill: rgb(102, 102, 102);" x="237.07804791362628">ext4</text><text opacity="1" z="3.068361711842698" y="274.7333628122883" transform="translate(0,0) rotate(-45 310.0453625755493 274.7333628122883)" text-anchor="end" style="color: rgb(102, 102, 102); cursor: default; font-size: 11px; fill: rgb(102, 102, 102);" x="310.0453625755493">bcachefs</text><text opacity="1" z="1.7949064797256682" y="274.7555910560481" transform="translate(0,0) rotate(-45 383.0126772374723 274.7555910560481)" text-anchor="end" style="color: rgb(102, 102, 102); cursor: default; font-size: 11px; fill: rgb(102, 102, 102);" x="383.0126772374723">btrfs</text><text opacity="1" z="0.5214512476086242" y="274.77781929980785" transform="translate(0,0) rotate(-45 455.9799918993953 274.77781929980785)" text-anchor="end" style="color: rgb(102, 102, 102); cursor: default; font-size: 11px; fill: rgb(102, 102, 102);" x="455.9799918993953">XFS</text><text opacity="1" z="-0.7520039845084128" y="274.80004754356764" transform="translate(0,0) rotate(-45 528.9473065613183 274.80004754356764)" text-anchor="end" style="color: rgb(102, 102, 102); cursor: default; font-size: 11px; fill: rgb(102, 102, 102);" x="528.9473065613183">Stratis (XFS,dm,vdo)</text><text opacity="1" z="-2.0254592166254497" y="274.82227578732744" transform="translate(0,0) rotate(-45 601.9146212232414 274.82227578732744)" text-anchor="end" style="color: rgb(102, 102, 102); cursor: default; font-size: 11px; fill: rgb(102, 102, 102);" x="601.9146212232414">OpenZFS</text></g><g aria-hidden="true" data-z-index="7" class="highcharts-axis-labels highcharts-zaxis-labels"></g><g aria-hidden="true" data-z-index="7" class="highcharts-axis-labels highcharts-yaxis-labels"><text opacity="1" z="7.639303375495629" y="262.779723319721" transform="translate(0,0)" text-anchor="end" style="color: rgb(102, 102, 102); cursor: default; font-size: 11px; fill: rgb(102, 102, 102);" x="37.25148172712534">0</text><text opacity="1" z="6.91397094115549" y="221.2254559868292" transform="translate(0,0)" text-anchor="end" style="color: rgb(102, 102, 102); cursor: default; font-size: 11px; fill: rgb(102, 102, 102);" x="37.25148172712534">100k</text><text opacity="1" z="6.17136868695011" y="178.68180133648764" transform="translate(0,0)" text-anchor="end" style="color: rgb(102, 102, 102); cursor: default; font-size: 11px; fill: rgb(102, 102, 102);" x="37.25148172712534">200k</text><text opacity="1" z="5.4460362526099715" y="137.12753400359588" transform="translate(0,0)" text-anchor="end" style="color: rgb(102, 102, 102); cursor: default; font-size: 11px; fill: rgb(102, 102, 102);" x="37.25148172712534">300k</text><text opacity="1" z="4.7034339984045985" y="94.5838793532543" transform="translate(0,0)" text-anchor="end" style="color: rgb(102, 102, 102); cursor: default; font-size: 11px; fill: rgb(102, 102, 102);" x="37.25148172712534">400k</text><text opacity="1" z="3.9781015640644597" y="53.02961202036255" transform="translate(0,0)" text-anchor="end" style="color: rgb(102, 102, 102); cursor: default; font-size: 11px; fill: rgb(102, 102, 102);" x="37.25148172712534">500k</text></g><text aria-hidden="false" aria-label="Chart credits: " y="395" style="cursor: pointer; color: rgb(153, 153, 153); font-size: 9px; fill: rgb(153, 153, 153);" data-z-index="8" text-anchor="end" class="highcharts-credits" x="640"></text><g aria-hidden="true" data-z-index="1000" class="highcharts-3d-frame highcharts-3d-frame-top" stroke-linejoin="round"><path visibility="hidden" d="M 53.19481304663782 46.982431410496616 L 637.9227176594718 47.16055876049026 L 635.8330694557776 49.249888700641606 L 51.10516484294362 49.07176135064796 Z" fill="none"></path><path visibility="hidden" d="M 52.09455216039345 49.07206275056333 L 635.8330694557776 49.249888700641606 L 637.9054478396065 47.17782595007827 L 54.16693054422234 47.000000000000014 Z" fill="none"></path><path visibility="hidden" d="M 53.19481304663782 46.982431410496616 L 51.10516484294362 49.07176135064796 L 52.09455216039345 49.07206275056333 L 54.16693054422234 47.000000000000014 Z" fill="none"></path><path visibility="hidden" d="M 635.8330694557776 49.249888700641606 L 637.9227176594718 47.16055876049026 L 637.9054478396065 47.17782595007827 L 635.8330694557776 49.249888700641606 Z" fill="none"></path><path visibility="hidden" d="M 51.10516484294362 49.07176135064796 L 635.8330694557776 49.249888700641606 L 635.8330694557776 49.249888700641606 L 52.09455216039345 49.07206275056333 Z" fill="none"></path><path visibility="hidden" d="M 637.9227176594718 47.16055876049026 L 53.19481304663782 46.982431410496616 L 54.16693054422234 47.000000000000014 L 637.9054478396065 47.17782595007827 Z" fill="none"></path></g><g aria-hidden="true" data-z-index="1000" class="highcharts-3d-frame highcharts-3d-frame-right" stroke-linejoin="round"><path visibility="hidden" d="M 637.9227176594718 257.9000573772985 L 637.9054478396065 256.9279372494367 L 635.8330694557776 259 L 635.8330694557776 259.98938731744977 Z" fill="none"></path><path visibility="hidden" d="M 635.8330694557776 49.249888700641606 L 635.8330694557776 49.249888700641606 L 637.9054478396065 47.17782595007827 L 637.9227176594718 47.16055876049026 Z" fill="none"></path><path visibility="hidden" d="M 635.8330694557776 49.249888700641606 L 635.8330694557776 259 L 637.9054478396065 256.9279372494367 L 637.9054478396065 47.17782595007827 Z" fill="none"></path><path visibility="hidden" d="M 635.8330694557776 259.98938731744977 L 635.8330694557776 49.249888700641606 L 637.9227176594718 47.16055876049026 L 637.9227176594718 257.9000573772985 Z" fill="none"></path><path visibility="hidden" d="M 635.8330694557776 49.249888700641606 L 635.8330694557776 259.98938731744977 L 635.8330694557776 259 L 635.8330694557776 49.249888700641606 Z" fill="none"></path><path visibility="hidden" d="M 637.9227176594718 257.9000573772985 L 637.9227176594718 47.16055876049026 L 637.9054478396065 47.17782595007827 L 637.9054478396065 256.9279372494367 Z" fill="none"></path></g><g aria-hidden="true" data-z-index="1000" class="highcharts-3d-frame highcharts-3d-frame-front" stroke-linejoin="round"><path visibility="hidden" d="M 51.10516484294362 259.8112599674562 L 635.8330694557776 259.98938731744977 L 635.8330694557776 259 L 52.09455216039345 258.8221740499217 Z" fill="none"></path><path visibility="hidden" d="M 635.8330694557776 49.249888700641606 L 51.10516484294362 49.07176135064796 L 52.09455216039345 49.07206275056333 L 635.8330694557776 49.249888700641606 Z" fill="none"></path><path visibility="hidden" d="M 51.10516484294362 49.07176135064796 L 51.10516484294362 259.8112599674562 L 52.09455216039345 258.8221740499217 L 52.09455216039345 49.07206275056333 Z" fill="none"></path><path visibility="hidden" d="M 635.8330694557776 259.98938731744977 L 635.8330694557776 49.249888700641606 L 635.8330694557776 49.249888700641606 L 635.8330694557776 259 Z" fill="none"></path><path visibility="hidden" d="M 635.8330694557776 49.249888700641606 L 52.09455216039345 49.07206275056333 L 52.09455216039345 258.8221740499217 L 635.8330694557776 259 Z" fill="none"></path><path visibility="hidden" d="M 635.8330694557776 259.98938731744977 L 51.10516484294362 259.8112599674562 L 51.10516484294362 49.07176135064796 L 635.8330694557776 49.249888700641606 Z" fill="none"></path></g></svg>
